<svg xmlns="http://www.w3.org/2000/svg" viewBox="0 0 141.73 141.73"><defs><style>.cls-1{fill:#e7a628;}.cls-2{fill:#231815;}</style></defs><title>画板 23</title><g id="图层_2" data-name="图层 2"><rect class="cls-1" width="141.73" height="141.73"/><path class="cls-2" d="M79.71,41.78a3.41,3.41,0,0,1,3.59,2.3,3.52,3.52,0,0,1-1.11,4.27c-2.81,2.06-5.68,4-8.53,6.06-2,1.38-3.89,2.78-5.85,4.15-3.68,2.57-7.38,5.1-11.05,7.67-3.35,2.35-6.69,4.73-10,7.11-2.85,2-5.69,4.08-8.61,6-2.59,1.72-5.08,3.6-7.64,5.37-3.7,2.56-7.27,5.33-11.12,7.69a3.54,3.54,0,0,1-5.23-2.67c-.13-1.54,0-2.89,1.63-4l14-9.61c3.37-2.32,6.64-4.78,10-7.14,4.14-2.91,8.36-5.72,12.45-8.7,2.16-1.58,4.41-3,6.53-4.67,1.57-1.23,3.32-2.28,5-3.43,4.65-3.19,9.23-6.48,13.86-9.7A2.75,2.75,0,0,1,79.71,41.78Z"/><path class="cls-2" d="M123.08,72.25a3.73,3.73,0,0,1-3.6-1.74C116,65.69,112.57,60.83,109.12,56c-3.89-5.44-7.82-10.86-11.68-16.31-2.3-3.26-4.69-6.47-6.93-9.77-2.1-3.08-.82-5.86,2.84-7.62,2.35-1.12,4.35-.28,5.88,1.91,2.81,4,5.71,8,8.55,12,4.25,6,8.47,12,12.72,18,2.29,3.22,4.6,6.41,6.91,9.61,2.09,2.9,1.46,5.73-1.65,7.54C124.89,71.88,124.08,72.49,123.08,72.25Z"/><path class="cls-2" d="M74.38,22.87c.17,1.76-.7,2.79-2.15,3.7-2.45,1.54-4.73,3.36-7.11,5C60.54,34.8,55.93,38,51.35,41.17,46,44.9,40.74,48.66,35.42,52.39c-2.89,2-5.87,3.91-8.67,6-1.55,1.17-3.14,2.3-4.67,3.48a59.93,59.93,0,0,1-6.47,4.17c-1.49.85-3.32.09-4.46-1.58s-1.08-3.12.53-4.54,3.11-2.35,4.7-3.48c2.53-1.8,5-3.67,7.63-5.34s5-3.46,7.42-5.21c3-2.11,6-4.19,8.94-6.27,4.29-3,8.57-6,12.84-9,4.47-3.16,8.92-6.34,13.49-9.36.69-.45,1.33-1,2-1.43A3.89,3.89,0,0,1,74.16,21C74.52,21.61,74.25,22.27,74.38,22.87Z"/><path class="cls-2" d="M72.34,32.77a3.34,3.34,0,0,1,3.48,2.12,3.87,3.87,0,0,1-1.12,4.5c-3.16,2.49-6.62,4.56-9.85,7-3.53,2.61-7.19,5-10.74,7.65-2.14,1.56-4.28,3.17-6.56,4.57-3.07,1.89-5.92,4.13-8.87,6.2-4.9,3.46-9.78,7-14.76,10.31-1.68,1.13-3.16,2.57-5.07,3.39a3.24,3.24,0,0,1-3.39-.53A3.85,3.85,0,0,1,14,74.21c.29-2.17,2.21-2.74,3.58-3.86,1.59-1.3,3.33-2.41,5-3.68,1.11-.87,2.39-1.59,3.58-2.4,3.46-2.36,6.91-4.74,10.3-7.21,2.67-1.94,5.42-3.77,8.13-5.66,3.44-2.39,6.94-4.7,10.3-7.2,2.56-1.9,5.17-3.73,7.75-5.59A74,74,0,0,1,69,34.21C70.12,33.57,71,32.32,72.34,32.77Z"/><path class="cls-2" d="M90,37.82a5,5,0,0,1,3.44,2c4.39,6.27,8.76,12.54,13.29,18.71,2.06,2.81,4,5.69,6,8.57,2.49,3.62-.09,6.32-3.19,7.13a3.24,3.24,0,0,1-3.36-1.48c-2.14-2.87-4.2-5.79-6.28-8.7L89.47,49.28c-1-1.42-2.07-2.81-3-4.25a4.37,4.37,0,0,1-.36-4.84A5.36,5.36,0,0,1,90,37.82Z"/><path class="cls-2" d="M122.35,77.41a3.16,3.16,0,0,1-1.62,2.76c-2.21,1.67-4.48,3.25-6.72,4.86-4.08,2.93-8.27,5.68-12.39,8.55-3.9,2.72-7.72,5.57-11.66,8.24-1.3.87-2.64,2.08-4.54,1-2.67-1.59-3.07-4.69-.6-6.59,2.3-1.77,4.72-3.37,7.1-5,3.33-2.33,6.71-4.59,10-7,4.9-3.55,9.89-7,14.89-10.38a3.43,3.43,0,0,1,4.54,1.13C121.83,75.74,122.54,76.47,122.35,77.41Z"/><path class="cls-2" d="M80.65,62.73c.23,1.51-1.24,2.49-2.49,3.32-2.57,1.71-5,3.58-7.6,5.32-4.93,3.37-9.77,6.87-14.69,10.27-3,2-5.82,4.22-8.87,6.13-1.83,1.15-3.68,0-4.71-1.47A3.6,3.6,0,0,1,43,81.47c3.91-2.94,8-5.64,12-8.41,2.61-1.8,5.09-3.83,7.7-5.62,3.66-2.5,7.27-5.07,11-7.51.38-.25.73-.55,1.11-.81,1-.69,2.12-1.26,3.36-.58A4.4,4.4,0,0,1,80.65,62.73Z"/><path class="cls-2" d="M104.14,75.77a4.22,4.22,0,0,1-1.89,3.31C99.47,81,96.73,83,94,85c-2.26,1.63-4.58,3.21-6.93,4.74-1.91,1.25-3.79,2.55-5.61,3.93-.69.52-1.45.92-2.12,1.5a4.22,4.22,0,0,1-4.36.49c-1.69-.58-2.36-4-1.23-5.45a17.61,17.61,0,0,1,4-3.19c4.54-3.3,9.17-6.49,13.78-9.7,2.27-1.59,4.58-3.14,6.86-4.74a3.37,3.37,0,0,1,4-.14A3.83,3.83,0,0,1,104.14,75.77Z"/><path class="cls-2" d="M63.86,83.54c-.23-1.48.83-2.37,2-3.18,2.6-1.85,5.24-3.65,7.84-5.49s5-3.56,7.48-5.35a3.85,3.85,0,0,1,5,.43c1,1.27,1.77,3,.24,4.89-1.19,1.44-2.86,2.25-4.32,3.34-3.61,2.69-7.44,5.07-11,7.82a10.79,10.79,0,0,1-1.81,1.1C66.45,88.51,63.87,86.89,63.86,83.54Z"/><path class="cls-2" d="M113.69,90.27a3.76,3.76,0,0,1,3.76,2.66,3.87,3.87,0,0,1-1.57,4.37c-2.71,1.84-5.37,3.76-8,5.64-2.47,1.73-4.91,3.48-7.42,5.16a3.59,3.59,0,0,1-4.23.08,3.91,3.91,0,0,1-1.81-3.61A3.48,3.48,0,0,1,96,102c2.83-2,5.74-4,8.54-6,2-1.5,4.1-2.88,6.09-4.41C111.47,90.91,112.46,89.72,113.69,90.27Z"/><path class="cls-2" d="M81.34,55.78c-.21-2.11,1.35-3.31,2.85-4,2-.86,3-.54,4.52,1.06,1.93,2,3.24,4.53,4.92,6.75,1.2,1.59,2.31,3.25,3.42,4.9,1.6,2.36-.46,5.87-3.47,6.26-2.63.34-3.69-1.42-4.9-3.11-2.24-3.15-4.44-6.32-6.72-9.43A4,4,0,0,1,81.34,55.78Z"/><path class="cls-2" d="M99.09,120.16c-.21-1.15.84-2.06,2-2.89s2.31-1.63,3.48-2.42c1.42-1,3.6-1,4.57-.18,1.92,1.68,1.76,3.24,1.11,5.17-.17.48-.69.57-1,.86a47.36,47.36,0,0,1-4.34,3.09,3.52,3.52,0,0,1-3.87.2C99.75,123.3,99.2,122.11,99.09,120.16Z"/></g></svg>